<svg xmlns="http://www.w3.org/2000/svg" width="32" height="32" style="enable-background:new 0 0 32 32" xml:space="preserve"><path class="sketchy_een" d="M29.984 26.434c-.008-.391-.024-.781-.034-1.174-.024-.817-.05-1.636-.085-2.454-.038-.841-.046-1.68-.069-2.521-.01-.405-.028-.807-.022-1.212.004-.436.018-.871.024-1.307.024-1.355-.03-2.71-.083-4.063-.024-.637-.018-1.271-.012-1.908a50.85 50.85 0 0 0-.025-2.103.83.83 0 0 0 .265-.603c0-.422-.358-.84-.794-.841l-.045.001c-.526.032-1.049.05-1.573.085-.54.036-1.079.073-1.619.097-1.101.048-2.205-.01-3.306-.056l-.105-.234c-.119-.29-.229-.581-.341-.874-.157-.408-.333-.809-.507-1.211-.23-.564-.434-1.14-.656-1.707a1.092 1.092 0 0 0-.216-.351.813.813 0 0 0-.678-.403c-.595-.012-1.19-.05-1.785-.075-.7-.032-1.406-.012-2.109-.006-.7.006-1.4.044-2.103.048a38.412 38.412 0 0 1-2.4-.068l-.037-.001c-.336 0-.617.249-.726.555a.923.923 0 0 0-.163.291c-.133.409-.256.823-.405 1.228-.131.359-.28.712-.426 1.067-.147.355-.28.718-.419 1.077-.082.216-.154.436-.23.654-.893.038-1.79.049-2.686.071-.585.016-1.172.034-1.757.012a27.916 27.916 0 0 1-2.01-.153c-.186 0-.389.111-.513.235a.797.797 0 0 0-.176.278.934.934 0 0 0-.128.424 69.778 69.778 0 0 0-.026 2.894c.006.857-.002 1.714.002 2.573.006.905.01 1.811.008 2.718-.002.877.028 1.754.036 2.63.014 1.333.036 2.666.048 3.997.006.629.006 1.256-.002 1.882l-.01.776c-.007.297-.036.598-.017.898.03.474.375.873.873.873.1 0 .196-.026.289-.06a.924.924 0 0 0 .252.057c1.726.069 3.451.016 5.177.014 1.686-.002 3.372 0 5.058.014 1.64.012 3.283-.006 4.925-.006.859.002 1.718.016 2.577-.012.801-.026 1.601-.046 2.404-.061.889-.02 1.781-.012 2.672-.006.815.008 1.64.04 2.452-.053.028-.003.051-.013.077-.017a.82.82 0 0 0 .917-.169c.165-.165.224-.359.242-.585.03-.384.01-.77 0-1.155zm-2.571.386c-.373.01-.746.02-1.117.02-.825 0-1.65-.008-2.476.018-.811.024-1.621.054-2.43.085a34.66 34.66 0 0 1-1.644.014c-.302-.002-.601-.004-.901-.002-1.65.012-3.301-.004-4.949-.02-1.658-.014-3.317-.05-4.975-.052-.875 0-1.75-.006-2.624-.024a76.939 76.939 0 0 1-2.495-.104 255.42 255.42 0 0 1-.066-4.009c-.008-.901-.01-1.799-.014-2.7-.002-.877-.032-1.754-.026-2.63.008-1.347.028-2.694.026-4.041-.002-1.151.032-2.3.075-3.448.327.017.654.048.982.049.605.002 1.21-.026 1.813-.038 1.091-.024 2.178.032 3.267.032a.8.8 0 0 0 .619-.31.877.877 0 0 0 .305-.424c.117-.387.252-.77.393-1.15.147-.394.28-.793.439-1.181.135-.312.276-.624.394-.941.102-.276.196-.554.291-.832 1.295.025 2.591-.025 3.886-.049.688-.014 1.383-.04 2.071-.006.417.02.833.053 1.249.083.311.764.628 1.525.952 2.284.311.758.595 1.525.941 2.269.087.187.305.329.496.381a.824.824 0 0 0 .469-.025l.007.001c1.176.036 2.351.04 3.527-.02.694-.035 1.388-.067 2.083-.091.031.753.058 1.504.071 2.257.014.809.058 1.613.101 2.418.048.867.056 1.736.063 2.602.008.815-.042 1.631-.012 2.446.052 1.371.085 2.743.095 4.114.004.633.022 1.264.042 1.894.01.358.02.718.021 1.077-.319.033-.634.046-.949.053zm-5.305-8.491.004-.028.014-.1-.036.27.018-.142zm-.038-2.535a5.054 5.054 0 0 0-.228-.98c-.143-.417-.357-.811-.577-1.188-.341-.585-.799-1.109-1.299-1.563-.678-.613-1.51-.956-2.39-1.162a1.074 1.074 0 0 0-.433-.012c-.163-.269-.45-.463-.773-.463l-.04.001c-.623.03-1.236.087-1.851.2-.53.099-1.027.323-1.519.533a7.005 7.005 0 0 0-1.196.639c-.446.307-.821.698-1.162 1.117-.359.44-.668.912-.906 1.428-.23.494-.377 1.027-.508 1.555a7.593 7.593 0 0 0-.234 1.595c-.014.551.069 1.117.179 1.654.103.506.315.988.522 1.456.216.492.494.96.833 1.375.676.829 1.597 1.371 2.593 1.74.488.181.988.319 1.5.417.544.101 1.101.178 1.652.131.547-.048 1.103-.117 1.63-.274a4.814 4.814 0 0 0 1.579-.799c.194-.151.403-.302.569-.486.157-.175.305-.355.448-.54.292-.375.595-.758.811-1.184a8.697 8.697 0 0 0 .843-2.682l.032-.239c.046-.339.04-.684.026-1.026a13.882 13.882 0 0 0-.101-1.243zm-1.622 2.172c-.1.588-.257 1.16-.472 1.717a7.765 7.765 0 0 1-.802 1.346 9.821 9.821 0 0 1-.416.492c-.108.12-.231.226-.357.328-.21.145-.423.275-.651.388a7.24 7.24 0 0 1-1.247.344c-.42.045-.832.054-1.253.015a9.555 9.555 0 0 1-1.865-.518 6.924 6.924 0 0 1-1.098-.619 4.873 4.873 0 0 1-.554-.568 7.214 7.214 0 0 1-.642-1.169 7.024 7.024 0 0 1-.379-1.349 7.195 7.195 0 0 1-.01-1.353c.103-.662.266-1.313.486-1.947.183-.394.398-.761.647-1.117.245-.298.511-.565.805-.816a8.49 8.49 0 0 1 1.325-.697c.218-.087.438-.169.666-.235.231-.068.47-.107.708-.142a26.02 26.02 0 0 1 1.042-.068c.037-.002.075-.006.111-.011.134.25.364.449.654.528.305.083.611.173.906.285.202.099.392.213.575.342.305.258.581.547.834.856.269.377.5.777.698 1.197.115.308.195.62.25.944.064.608.089 1.221.039 1.827zM6.801 12.529a.855.855 0 0 1-.847.847.855.855 0 0 1-.847-.847c0-.462.385-.847.847-.847.462 0 .847.385.847.847zm12.208 3.711c.02.264.052.536.035.8a9.929 9.929 0 0 1-.086.858c-.026.19-.086.378-.145.56-.076.231-.16.458-.26.679-.236.523-.675.934-1.141 1.256-.525.361-1.128.504-1.753.554-.471.037-.867-.422-.867-.865 0-.456.394-.888.867-.867.092.005.183.004.274-.003.117-.024.231-.053.343-.091a3.24 3.24 0 0 0 .403-.243c.099-.087.191-.18.281-.277.071-.105.132-.212.187-.326.093-.245.168-.494.22-.751.018-.168.032-.338.026-.504-.011-.26-.03-.519-.05-.78-.039-.454.408-.833.834-.833.22 0 .434.087.59.244.164.165.225.362.242.589z" style="fill:#111918"/></svg>