<?xml version="1.0" encoding="utf-8"?>
<!-- Generator: Adobe Illustrator 16.0.0, SVG Export Plug-In . SVG Version: 6.00 Build 0)  -->
<!DOCTYPE svg PUBLIC "-//W3C//DTD SVG 1.1 Basic//EN" "http://www.w3.org/Graphics/SVG/1.1/DTD/svg11-basic.dtd" [
	<!ENTITY st0 "fill:none;">
]>
<svg version="1.1" baseProfile="basic" id="Capa_1" xmlns="http://www.w3.org/2000/svg" xmlns:xlink="http://www.w3.org/1999/xlink"
	x="0px" y="0px" width="2122px" height="2122px" viewBox="0 0 2122 2122" xml:space="preserve">
<path style="&st0;" d="M289.492,1645.977c18.516-0.184,37.027-0.355,55.547-0.547c36.5-0.367,73.004-0.75,109.508-1.156
	c73.004-0.809,146.004-1.684,219.008-2.641c146.535-1.91,293.066-4.109,439.594-6.609c146.523-2.5,293.043-5.281,439.555-8.367
	c72.996-1.535,145.984-3.141,218.977-4.816c9.516-0.219,19.039-0.434,28.559-0.664c7.191-0.176,16.059,0.566,19.566-7.141
	c3.02-6.629,1.984-16.113,1.488-23.145c-0.586-8.203-2.129-16.297-4.238-24.242c-8.672-32.66-26.57-62.277-42.395-91.84
	c-34.141-63.809-67.586-128.055-102.473-191.457c-7.625-13.863-16.465-26.277-32.453-30.695c-3.324-0.918-6.723-1.52-10.152-1.973
	c-1.102,2.957-2.508,5.816-4.484,8.473c-16.184,21.684-51.813,18.602-75.527,19.914c-36.254,2.023-72.516,3.789-108.789,5.301
	c-145.621,6.066-291.414,8.07-437.152,5.996c-145.734-2.066-291.406-8.215-436.801-18.422c-8.98-0.629-17.965-1.223-26.949-1.863
	c0.66,6.934,1.453,13.852,2.535,20.742c0.867,5.516,1.609,11.254,3.082,16.652c0.469,1.699,0.059,0.422,0.402,1.109
	c1.801,3.637,4.344,6.293,7.742,8.789c18.855,13.879,45.938,11.645,67.906,11.715c32.789,0.105,65.574,0.504,98.355,1.027
	c65.344,1.039,130.68,2.547,196.031,3.16c61.523,0.57,123.023,0.172,184.527-1.344c55.738-1.367,111.508-0.773,167.258-0.809
	c72.332-0.047,144.668-0.094,217.004-0.137c17.953-0.008,35.906-0.023,53.855-0.039c17.449-0.008,35.152-0.836,52.535,0.879
	c26,2.551,48.773,13.777,65.391,34.125c15.344,18.793,24.793,41.82,30.445,65.254c4.871,20.219,15.258,56.207-11.609,64.801
	c-7.328,2.336-15.52,2.547-23.113,3.379c-8.859,0.977-17.727,1.922-26.594,2.836c-17.637,1.824-35.281,3.527-52.938,5.125
	c-34.988,3.168-70.012,5.902-105.063,8.227c-139.34,9.23-279.027,11.91-418.637,10.641c-140.566-1.285-281.059-6.48-421.5-12.367
	c-34.137-1.43-68.602-4.473-102.762-4.242c-24.047,0.16-48.047,5.012-71.73,8.672c-23.52,3.629-47.637,7.789-71.523,6.859
	c-9.887-0.383-22.527-1.086-30.359-7.809c-7.125-6.121-5.824-14.152-4.051-22.484c4.887-22.934,15.023-44.594,23.84-66.168
	c13.551-33.16,27.102-66.324,40.652-99.484c10.492-25.68,19.262-59.348,46.082-72.883c6.645-3.352,13.738-5.383,21-6.652
	c-6.402-11.207-8.234-25.621-10.172-37.965c-1.23-7.836-2.156-15.707-2.914-23.598c-7.395-0.316-14.785-0.535-22.137-0.387
	c-16.895,0.336-26.695,8.539-33.086,23.742c-5.676,13.492-10.063,27.547-15.582,41.117c-5.793,14.262-11.973,28.363-18.426,42.332
	c-26.301,56.918-57.051,111.656-83.203,168.645c-12.809,27.914-24.441,56.391-33.672,85.691
	c-4.691,14.895-8.758,29.977-12.039,45.246c-2.832,13.172-8.914,32.934,2.297,43.816
	C259.551,1647.852,276.98,1646.098,289.492,1645.977z"/>
<path style="&st0;" d="M909.961,1131.117c144.938-1.375,289.863-3.852,434.781-6.328c17.598-0.305,35.203-0.578,52.781-1.379
	c9.008-0.41,18.125-0.711,27.086-1.742c7.441-0.855,13.512-3.172,16.41-10.574c2.652-6.773,3.168-14.566,4.25-21.68
	c1.18-7.824,2.359-15.648,3.516-23.473c2.602-17.625,5.113-35.258,7.379-52.93c8.59-66.969,14.051-134.855,8.32-202.313
	c-2.895-34.027-8.801-67.805-18.457-100.586c-2.191-7.453-3.973-16.344-12.012-19.387c-7.875-2.984-17.762-2.875-26.078-3.84
	c-17.629-2.039-35.297-3.836-52.977-5.402c-71.215-6.305-142.73-8.867-214.211-8.895c-143.934-0.051-287.605,10.121-431.059,20.809
	c-35.109,2.613-70.219,5.242-105.328,7.863c-14.102,1.055-30.414,0.723-43.117,7.859c-14.828,8.328-14.309,25.707-14.602,40.648
	c-1.418,72.195-2.836,144.391-4.254,216.586c-0.992,50.25-1.977,100.508-2.965,150.762
	C661.285,1137.723,786.957,1132.285,909.961,1131.117z"/>
<path style="&st0;" d="M496.332,1189.578c-6.125-0.23-12.281-0.566-18.441-0.898c1.461,14.855,3.676,29.598,7.555,43.961
	c1.488,5.504,3.398,11.223,7.238,15.387c1.688-0.109,3.375-0.195,5.059-0.258c9.355-0.375,18.734-0.477,28.113-0.523
	c-0.559-12.781-0.672-25.598-0.578-38.395c0.043-6.086,0.137-12.176,0.215-18.266
	C515.773,1190.234,506.051,1189.941,496.332,1189.578z"/>
<path style="&st0;" d="M474.422,1130.406c0.766,15.18,1.297,30.566,2.406,45.891c1.777,0.105,3.531,0.191,5.262,0.262
	c14.523,0.559,29.051,1.023,43.574,1.551c0.285-16.859,0.66-33.711,1.035-50.57c-9.66-1.734-19.301-3.605-28.902-5.699
	c-7.848-1.715-4.508-13.738,3.316-12.027c8.598,1.879,17.215,3.598,25.852,5.188c0.117-5.281,0.234-10.563,0.34-15.848
	c1.43-72.723,2.859-145.445,4.289-218.168c0.715-36.359,1.43-72.719,2.145-109.082c0.535-27.266-4.211-63.016,26.133-75.906
	c12.527-5.32,26.473-5.859,39.859-6.859c18.023-1.344,36.047-2.691,54.074-4.039c35.324-2.637,70.645-5.301,105.977-7.867
	c144.469-10.496,289.293-19.359,434.215-16.605c72.516,1.383,145.008,5.688,217.055,14.152c12.957,1.523,29.629,0.906,38.465,12.18
	c8.645,11.012,11.047,27.914,14.277,41.172c7.988,32.801,12.48,66.434,14.402,100.121c3.848,67.754-2.828,135.602-11.926,202.684
	c-2.273,16.711-4.707,33.395-7.207,50.066c-2.004,13.348-2.066,30.043-10.086,41.492c-8.199,11.707-23.074,11.676-35.969,12.531
	c-17.543,1.168-35.121,1.629-52.695,1.957c-145.887,2.777-291.797,5.039-437.699,6.488c-71.625,0.711-143.336,1.992-214.957,0.383
	c-56.379-1.266-112.828-5.063-168.477-14.215c-0.316,16.301-0.648,32.605-0.961,48.914c126.379,4.473,252.801,7.605,379.246,9.223
	c145.164,1.855,290.352,1.828,435.516-0.082c36.426-0.477,72.848-1.078,109.262-1.793c17.949-0.352,35.895-0.734,53.836-1.145
	c11.008-0.254,29.523,0.617,35.266-11.32c3.305-6.859,1.199-16,0.426-23.207c-0.941-8.766-1.828-17.531-2.66-26.313
	c-1.672-17.543-3.129-35.105-4.371-52.695c-2.516-35.68-4.156-71.422-4.91-107.188c-1.512-71.008,0.445-142.09,5.879-212.906
	c2.734-35.664,6.348-71.262,10.836-106.75c1.945-15.375,5.102-30.891,5.699-46.387c0.531-13.695-2.086-28.445-17.535-31.891
	c-8.578-1.906-18.07-0.977-26.785-1.016c-8.453-0.031-16.91-0.07-25.371-0.102c-17.973-0.074-35.941-0.148-53.914-0.223
	c-36.465-0.148-72.938-0.301-109.406-0.453c-72.414-0.297-144.824-0.594-217.23-0.891c-145.223-0.598-290.438-1.32-435.656-1.789
	c-35.133-0.113-70.328,0.051-105.352,3.141c-17.188,1.516-34.57,3.457-51.441,7.16c-7.742,1.695-15.969,4.113-20.926,10.781
	c-4.188,5.633-5.727,12.91-7.109,19.645c-14.238,69.289-20.41,140.473-23.168,211.066c-2.746,70.25-1.492,140.59,1.203,210.82
	C470.91,1059.641,472.637,1095.023,474.422,1130.406z"/>
<path style="&st0;" d="M527.199,1269.086c-4.363-0.344-8.734-0.641-13.094-1.031c-9.035-0.813-17.965-2.453-25.227-7.219
	c-12.629,1.195-25.324,4.27-34.898,13.008c-10.984,10.031-16.523,24.734-22.02,38.18c-13.957,34.133-27.898,68.27-41.848,102.41
	c-9.918,24.258-21.125,48.309-28.402,73.543c-1.371,4.746-2.832,9.648-3.426,14.563c-0.664,5.473,1.445,6.391,7.16,8.02
	c9.941,2.84,20.973,2.453,31.184,1.953c25.789-1.266,51.301-6.078,76.781-9.945c24.473-3.715,47.906-5.73,72.648-4.664
	c36.484,1.574,72.969,3.133,109.457,4.637c140.699,5.785,281.469,10.676,422.301,11.406c140.813,0.738,281.695-2.777,422.156-13.105
	c35.684-2.629,71.332-5.684,106.941-9.199c17.727-1.754,35.449-3.555,53.145-5.594c7.961-0.914,18.078-1.402,20.039-10.922
	c1.316-6.363-0.242-13.719-1.188-20.059c-3.711-24.934-11-50.066-24.809-71.371c-15.57-24.02-38.648-37.738-67.254-39.758
	c-34.832-2.453-70.383-0.496-105.293-0.477c-36.957,0.023-73.918,0.051-110.879,0.074c-72.859,0.043-145.723,0.094-218.59,0.137
	c-46.941,0.027-93.867,1.906-140.813,2.234c-67.324,0.48-134.645-0.504-201.953-1.723c-65.945-1.199-131.891-2.555-197.848-2.641
	c-24.602-0.039-68.688-1.102-78.043-30.926C529.379,1297.711,528.16,1282.969,527.199,1269.086z"/>
<path style="&st0;" d="M680.254,1266.609c72.504,4.027,145.059,7.055,217.641,9.07c144.113,3.996,288.344,4.012,432.457,0.039
	c72.582-1.996,145.145-5.008,217.641-9.031c15.344-0.848,31.43-0.496,46.496-3.84c9.707-2.152,16.988-6.289,21.27-13.137
	c-8.18-0.125-16.414,0.305-24.379,0.379c-36.492,0.336-72.988,0.664-109.48,1c-146.5,1.34-293.004,2.688-439.504,4.027
	c-145.973,1.332-291.945,2.672-437.914,4.008c-13.629,0.129-27.289,0.094-40.953,0.09c3.199,0.223,6.398,0.477,9.602,0.699
	C608.82,1262.391,644.531,1264.621,680.254,1266.609z"/>
<path d="M243.75,1649.504c9.859,7.512,22.875,8.84,34.887,9.004c35.859,0.473,71.805-0.656,107.664-1.031
	c145.48-1.52,290.957-3.32,436.43-5.418c144.945-2.082,289.887-4.461,434.82-7.121c145.992-2.676,291.98-5.641,437.965-8.902
	c35.961-0.805,71.945-1.309,107.895-2.461c12.293-0.395,23.988-3.391,28.422-16.223c4.594-13.285,2.266-29.727-0.285-43.199
	c-6.016-31.773-22.059-60.684-37.148-88.883c-16.934-31.648-33.867-63.289-50.801-94.934
	c-17.184-32.105-34.363-64.215-51.547-96.324c-6.93-12.953-13.254-26.875-23.254-37.828c-9.52-10.422-22.227-15.688-36.02-17.566
	l-0.469-0.047c0.734-7.266,0.359-14.785,0.313-21.891c-0.141-18.523-0.277-37.047-0.414-55.57
	c-0.27-36.512-0.543-73.035-0.805-109.547c-1.082-146.594-2.164-293.184-3.246-439.773c-0.137-18.523-0.27-37.043-0.406-55.566
	c-0.094-12.449,0.656-27.141-8.645-36.859c-9.996-10.441-27.41-11.473-40.813-13.652c-17.113-2.789-34.355-4.773-51.629-6.16
	c-71.758-5.77-144.305-3.727-216.234-4.219c-145.91-1-291.824-1.996-437.738-2.996c-72.957-0.504-145.914-1-218.871-1.5
	c-37.008-0.254-74.012-0.508-111.02-0.762c-26.141-0.176-52.895-0.039-78.25,7.152c-23.707,6.723-45.43,20.691-56.488,43.383
	c-13.289,27.262-10.801,58.965-9.984,88.371c1.633,58.77,3.617,117.531,5.938,176.277c4.141,104.773,8.531,209.52,11.367,314.34
	c0.211,8.012,12.688,8.039,12.473,0c-2.926-108.086-7.535-216.09-11.75-324.129c-2.305-59.113-4.258-118.242-5.852-177.383
	c-0.789-29.184-2.344-63.219,18.738-86.367c17.453-19.168,44.285-25.555,69.152-27.891c30.543-2.867,61.609-1.164,92.238-0.953
	c36.477,0.25,72.953,0.5,109.434,0.75c72.957,0.5,145.91,1,218.871,1.496c145.383,0.996,290.766,1.992,436.156,2.988
	c70.684,0.48,142.469-1.941,212.594,8.457c8.551,1.266,17.102,2.68,25.563,4.441c7.523,1.57,15.953,3.258,19.602,10.844
	c3.102,6.445,2.598,14.215,2.648,21.195c0.078,9.523,0.145,19.051,0.211,28.578c0.27,35.984,0.535,71.973,0.801,107.957
	c1.07,145.535,2.141,291.066,3.215,436.605c0.137,18.516,0.273,37.039,0.41,55.559c0.129,17.473,1.105,35.172,0.242,52.621
	c-0.055,1.113-0.242,2.102-0.379,3.145c-11.555-0.512-23.223,0.059-34.719,0.164c-17.984,0.164-35.969,0.324-53.945,0.488
	c-36.492,0.34-72.988,0.668-109.48,1.004c-145.441,1.336-290.891,2.668-436.332,3.996c-144.91,1.324-289.828,2.656-434.742,3.98
	c-4.074,0.039-8.152,0.055-12.234,0.063c-0.813-18.711-0.645-37.488-0.309-56.188c59.449,2.105,118.906,3.98,178.375,5.449
	c145.664,3.613,291.367,5.32,437.07,5.137c72.855-0.094,145.707-0.664,218.551-1.703c36.949-0.527,73.902-1.18,110.848-1.949
	c16.051-0.332,32.492,0.301,48.469-1.504c10.656-1.207,22.012-4.324,28.684-13.387c8.859-12.055,4.691-28.453,3.281-42.121
	c-1.859-18.051-3.492-36.121-4.902-54.211c-2.777-35.664-4.672-71.395-5.684-107.152c-2.023-71.512-0.531-143.125,4.477-214.492
	c2.504-35.68,5.883-71.305,10.148-106.82c2.066-17.203,4.805-34.336,6.73-51.551c1.309-11.762,1.508-24.656-3.813-35.547
	c-5.617-11.508-16.707-16.918-29.043-18.105c-17.566-1.691-35.742-0.504-53.383-0.574c-36.469-0.148-72.941-0.301-109.41-0.453
	c-145.883-0.598-291.762-1.199-437.645-1.797c-73.469-0.301-146.938-0.605-220.406-0.906c-35.551-0.145-71.137-0.699-106.68,0.469
	c-33.324,1.094-68.535,2.559-100.969,10.934c-13.289,3.434-23.723,10.707-29.027,23.684c-6,14.664-7.5,31.809-10.066,47.336
	c-5.754,34.844-10.008,69.93-13.02,105.109c-6.027,70.445-7.051,141.23-5.719,211.891c1.336,70.699,4.648,141.418,8.66,212.004
	c0.281,4.922,0.609,9.844,0.973,14.754c-23.109-1.402-47.25-1.258-60.469,20.734c-7,11.648-10.539,25.34-15.355,37.965
	c-5.746,15.039-12.008,29.875-18.617,44.559c-25.391,56.371-55.621,110.383-82.012,166.273
	c-13.008,27.563-25.125,55.602-35.141,84.395c-9.617,27.637-19.848,57.945-21.766,87.34
	C230.32,1629.129,233.539,1641.723,243.75,1649.504z M604.48,1259.125c145.969-1.336,291.941-2.676,437.914-4.008
	c146.5-1.34,293.004-2.688,439.504-4.027c36.492-0.336,72.988-0.664,109.48-1c7.965-0.074,16.199-0.504,24.379-0.379
	c-4.281,6.848-11.563,10.984-21.27,13.137c-15.066,3.344-31.152,2.992-46.496,3.84c-72.496,4.023-145.059,7.035-217.641,9.031
	c-144.113,3.973-288.344,3.957-432.457-0.039c-72.582-2.016-145.137-5.043-217.641-9.07c-35.723-1.988-71.434-4.219-107.125-6.695
	c-3.203-0.223-6.402-0.477-9.602-0.699C577.191,1259.219,590.852,1259.254,604.48,1259.125z M611.473,1341.543
	c65.957,0.086,131.902,1.441,197.848,2.641c67.309,1.219,134.629,2.203,201.953,1.723c46.945-0.328,93.871-2.207,140.813-2.234
	c72.867-0.043,145.73-0.094,218.59-0.137c36.961-0.023,73.922-0.051,110.879-0.074c34.91-0.02,70.461-1.977,105.293,0.477
	c28.605,2.02,51.684,15.738,67.254,39.758c13.809,21.305,21.098,46.438,24.809,71.371c0.945,6.34,2.504,13.695,1.188,20.059
	c-1.961,9.52-12.078,10.008-20.039,10.922c-17.695,2.039-35.418,3.84-53.145,5.594c-35.609,3.516-71.258,6.57-106.941,9.199
	c-140.461,10.328-281.344,13.844-422.156,13.105c-140.832-0.73-281.602-5.621-422.301-11.406
	c-36.488-1.504-72.973-3.063-109.457-4.637c-24.742-1.066-48.176,0.949-72.648,4.664c-25.48,3.867-50.992,8.68-76.781,9.945
	c-10.211,0.5-21.242,0.887-31.184-1.953c-5.715-1.629-7.824-2.547-7.16-8.02c0.594-4.914,2.055-9.816,3.426-14.563
	c7.277-25.234,18.484-49.285,28.402-73.543c13.949-34.141,27.891-68.277,41.848-102.41c5.496-13.445,11.035-28.148,22.02-38.18
	c9.574-8.738,22.27-11.813,34.898-13.008c7.262,4.766,16.191,6.406,25.227,7.219c4.359,0.391,8.73,0.688,13.094,1.031
	c0.961,13.883,2.18,28.625,6.23,41.531C542.785,1340.441,586.871,1341.504,611.473,1341.543z M525.855,1247.246
	c-9.379,0.047-18.758,0.148-28.113,0.523c-1.684,0.063-3.371,0.148-5.059,0.258c-3.84-4.164-5.75-9.883-7.238-15.387
	c-3.879-14.363-6.094-29.105-7.555-43.961c6.16,0.332,12.316,0.668,18.441,0.898c9.719,0.363,19.441,0.656,29.16,1.008
	c-0.078,6.09-0.172,12.18-0.215,18.266C525.184,1221.648,525.297,1234.465,525.855,1247.246z M468.348,813.418
	c2.758-70.594,8.93-141.777,23.168-211.066c1.383-6.734,2.922-14.012,7.109-19.645c4.957-6.668,13.184-9.086,20.926-10.781
	c16.871-3.703,34.254-5.645,51.441-7.16c35.023-3.09,70.219-3.254,105.352-3.141c145.219,0.469,290.434,1.191,435.656,1.789
	c72.406,0.297,144.816,0.594,217.23,0.891c36.469,0.152,72.941,0.305,109.406,0.453c17.973,0.074,35.941,0.148,53.914,0.223
	c8.461,0.031,16.918,0.07,25.371,0.102c8.715,0.039,18.207-0.891,26.785,1.016c15.449,3.445,18.066,18.195,17.535,31.891
	c-0.598,15.496-3.754,31.012-5.699,46.387c-4.488,35.488-8.102,71.086-10.836,106.75c-5.434,70.816-7.391,141.898-5.879,212.906
	c0.754,35.766,2.395,71.508,4.91,107.188c1.242,17.59,2.699,35.152,4.371,52.695c0.832,8.781,1.719,17.547,2.66,26.313
	c0.773,7.207,2.879,16.348-0.426,23.207c-5.742,11.938-24.258,11.066-35.266,11.32c-17.941,0.41-35.887,0.793-53.836,1.145
	c-36.414,0.715-72.836,1.316-109.262,1.793c-145.164,1.91-290.352,1.938-435.516,0.082c-126.445-1.617-252.867-4.75-379.246-9.223
	c0.313-16.309,0.645-32.613,0.961-48.914c55.648,9.152,112.098,12.949,168.477,14.215c71.621,1.609,143.332,0.328,214.957-0.383
	c145.902-1.449,291.813-3.711,437.699-6.488c17.574-0.328,35.152-0.789,52.695-1.957c12.895-0.855,27.77-0.824,35.969-12.531
	c8.02-11.449,8.082-28.145,10.086-41.492c2.5-16.672,4.934-33.355,7.207-50.066c9.098-67.082,15.773-134.93,11.926-202.684
	c-1.922-33.688-6.414-67.32-14.402-100.121c-3.23-13.258-5.633-30.16-14.277-41.172c-8.836-11.273-25.508-10.656-38.465-12.18
	c-72.047-8.465-144.539-12.77-217.055-14.152c-144.922-2.754-289.746,6.109-434.215,16.605c-35.332,2.566-70.652,5.23-105.977,7.867
	c-18.027,1.348-36.051,2.695-54.074,4.039c-13.387,1-27.332,1.539-39.859,6.859c-30.344,12.891-25.598,48.641-26.133,75.906
	c-0.715,36.363-1.43,72.723-2.145,109.082c-1.43,72.723-2.859,145.445-4.289,218.168c-0.105,5.285-0.223,10.566-0.34,15.848
	c-8.637-1.59-17.254-3.309-25.852-5.188c-7.824-1.711-11.164,10.313-3.316,12.027c9.602,2.094,19.242,3.965,28.902,5.699
	c-0.375,16.859-0.75,33.711-1.035,50.57c-14.523-0.527-29.051-0.992-43.574-1.551c-1.73-0.07-3.484-0.156-5.262-0.262
	c-1.109-15.324-1.641-30.711-2.406-45.891c-1.785-35.383-3.512-70.766-4.871-106.168
	C466.855,954.008,465.602,883.668,468.348,813.418z M539.426,1117.117c0.988-50.254,1.973-100.512,2.965-150.762
	c1.418-72.195,2.836-144.391,4.254-216.586c0.293-14.941-0.227-32.32,14.602-40.648c12.703-7.137,29.016-6.805,43.117-7.859
	c35.109-2.621,70.219-5.25,105.328-7.863c143.453-10.688,287.125-20.859,431.059-20.809c71.48,0.027,142.996,2.59,214.211,8.895
	c17.68,1.566,35.348,3.363,52.977,5.402c8.316,0.965,18.203,0.855,26.078,3.84c8.039,3.043,9.82,11.934,12.012,19.387
	c9.656,32.781,15.563,66.559,18.457,100.586c5.73,67.457,0.27,135.344-8.32,202.313c-2.266,17.672-4.777,35.305-7.379,52.93
	c-1.156,7.824-2.336,15.648-3.516,23.473c-1.082,7.113-1.598,14.906-4.25,21.68c-2.898,7.402-8.969,9.719-16.41,10.574
	c-8.961,1.031-18.078,1.332-27.086,1.742c-17.578,0.801-35.184,1.074-52.781,1.379c-144.918,2.477-289.844,4.953-434.781,6.328
	C786.957,1132.285,661.285,1137.723,539.426,1117.117z M247.414,1594.48c3.281-15.27,7.348-30.352,12.039-45.246
	c9.23-29.301,20.863-57.777,33.672-85.691c26.152-56.988,56.902-111.727,83.203-168.645c6.453-13.969,12.633-28.07,18.426-42.332
	c5.52-13.57,9.906-27.625,15.582-41.117c6.391-15.203,16.191-23.406,33.086-23.742c7.352-0.148,14.742,0.07,22.137,0.387
	c0.758,7.891,1.684,15.762,2.914,23.598c1.938,12.344,3.77,26.758,10.172,37.965c-7.262,1.27-14.355,3.301-21,6.652
	c-26.82,13.535-35.59,47.203-46.082,72.883c-13.551,33.16-27.102,66.324-40.652,99.484c-8.816,21.574-18.953,43.234-23.84,66.168
	c-1.773,8.332-3.074,16.363,4.051,22.484c7.832,6.723,20.473,7.426,30.359,7.809c23.887,0.93,48.004-3.23,71.523-6.859
	c23.684-3.66,47.684-8.512,71.73-8.672c34.16-0.23,68.625,2.813,102.762,4.242c140.441,5.887,280.934,11.082,421.5,12.367
	c139.609,1.27,279.297-1.41,418.637-10.641c35.051-2.324,70.074-5.059,105.063-8.227c17.656-1.598,35.301-3.301,52.938-5.125
	c8.867-0.914,17.734-1.859,26.594-2.836c7.594-0.832,15.785-1.043,23.113-3.379c26.867-8.594,16.48-44.582,11.609-64.801
	c-5.652-23.434-15.102-46.461-30.445-65.254c-16.617-20.348-39.391-31.574-65.391-34.125c-17.383-1.715-35.086-0.887-52.535-0.879
	c-17.949,0.016-35.902,0.031-53.855,0.039c-72.336,0.043-144.672,0.09-217.004,0.137c-55.75,0.035-111.52-0.559-167.258,0.809
	c-61.504,1.516-123.004,1.914-184.527,1.344c-65.352-0.613-130.688-2.121-196.031-3.16c-32.781-0.523-65.566-0.922-98.355-1.027
	c-21.969-0.07-49.051,2.164-67.906-11.715c-3.398-2.496-5.941-5.152-7.742-8.789c-0.344-0.688,0.066,0.59-0.402-1.109
	c-1.473-5.398-2.215-11.137-3.082-16.652c-1.082-6.891-1.875-13.809-2.535-20.742c8.984,0.641,17.969,1.234,26.949,1.863
	c145.395,10.207,291.066,16.355,436.801,18.422c145.738,2.074,291.531,0.07,437.152-5.996c36.273-1.512,72.535-3.277,108.789-5.301
	c23.715-1.313,59.344,1.77,75.527-19.914c1.977-2.656,3.383-5.516,4.484-8.473c3.43,0.453,6.828,1.055,10.152,1.973
	c15.988,4.418,24.828,16.832,32.453,30.695c34.887,63.402,68.332,127.648,102.473,191.457c15.824,29.563,33.723,59.18,42.395,91.84
	c2.109,7.945,3.652,16.039,4.238,24.242c0.496,7.031,1.531,16.516-1.488,23.145c-3.508,7.707-12.375,6.965-19.566,7.141
	c-9.52,0.23-19.043,0.445-28.559,0.664c-72.992,1.676-145.98,3.281-218.977,4.816c-146.512,3.086-293.031,5.867-439.555,8.367
	c-146.527,2.5-293.059,4.699-439.594,6.609c-73.004,0.957-146.004,1.832-219.008,2.641c-36.504,0.406-73.008,0.789-109.508,1.156
	c-18.52,0.191-37.031,0.363-55.547,0.547c-12.512,0.121-29.941,1.875-39.781-7.68C238.5,1627.414,244.582,1607.652,247.414,1594.48z
	"/>
</svg>
